<svg xmlns="http://www.w3.org/2000/svg" xmlns:xlink="http://www.w3.org/1999/xlink" width="800" zoomAndPan="magnify" viewBox="0 0 600 187.499995" height="250" preserveAspectRatio="xMidYMid meet" version="1.0"><defs><g/></defs><g fill="#000000" fill-opacity="1"><g transform="translate(19.498012, 141.956718)"><g><path d="M 60.523438 0 L 60.523438 -9.792969 L 20.175781 -9.792969 L 20.175781 -90.019531 L 9.320312 -90.019531 L 9.320312 0 Z M 60.523438 0 "/></g></g></g><g fill="#000000" fill-opacity="1"><g transform="translate(75.892811, 141.956718)"><g><path d="M 30.4375 1.179688 C 37.871094 1.179688 43.535156 -2.125 49.789062 -10.144531 L 49.789062 0 L 59.816406 0 L 59.816406 -65.242188 L 49.789062 -65.242188 L 49.789062 -37.398438 C 49.789062 -24.066406 48.136719 -16.988281 43.890625 -12.507812 C 40.941406 -9.320312 36.929688 -7.667969 31.972656 -7.667969 C 27.488281 -7.667969 24.1875 -8.847656 21.945312 -11.328125 C 19.347656 -14.277344 18.167969 -18.878906 18.167969 -25.957031 L 18.167969 -65.242188 L 8.140625 -65.242188 L 8.140625 -25.957031 C 8.140625 -18.40625 9.085938 -13.097656 11.207031 -9.085938 C 14.867188 -2.242188 21.238281 1.179688 30.4375 1.179688 Z M 30.4375 1.179688 "/></g></g></g><g fill="#000000" fill-opacity="1"><g transform="translate(138.186678, 141.956718)"><g><path d="M 18.40625 0 L 18.40625 -27.84375 C 18.40625 -41.175781 20.058594 -48.253906 24.304688 -52.738281 C 27.019531 -55.6875 30.910156 -57.574219 36.21875 -57.574219 C 40.703125 -57.574219 44.007812 -56.394531 46.25 -53.917969 C 48.84375 -50.96875 50.023438 -46.25 50.023438 -39.289062 L 50.023438 0 L 60.054688 0 L 60.054688 -39.289062 C 60.054688 -43.417969 60.054688 -50.261719 56.984375 -56.160156 C 53.800781 -62.175781 48.019531 -66.421875 37.753906 -66.421875 C 30.675781 -66.421875 25.011719 -63.59375 18.40625 -55.097656 L 18.40625 -65.242188 L 8.375 -65.242188 L 8.375 0 Z M 18.40625 0 "/></g></g></g><g fill="#000000" fill-opacity="1"><g transform="translate(200.244587, 141.956718)"><g><path d="M 37.28125 1.179688 C 51.910156 1.179688 63.355469 -7.078125 66.1875 -21 L 55.453125 -21 C 53.328125 -12.976562 46.367188 -7.667969 37.28125 -7.667969 C 24.894531 -7.667969 15.691406 -18.050781 15.691406 -32.917969 C 15.691406 -47.3125 24.894531 -57.574219 37.28125 -57.574219 C 45.660156 -57.574219 52.5 -52.972656 54.980469 -45.660156 L 65.714844 -45.660156 C 62.765625 -58.28125 51.910156 -66.421875 37.28125 -66.421875 C 18.640625 -66.421875 5.664062 -52.265625 5.664062 -32.917969 C 5.664062 -12.976562 18.757812 1.179688 37.28125 1.179688 Z M 37.28125 1.179688 "/></g></g></g><g fill="#000000" fill-opacity="1"><g transform="translate(265.370022, 141.956718)"><g><path d="M 18.523438 0 L 18.523438 -27.84375 C 18.523438 -41.175781 20.175781 -48.253906 24.421875 -52.738281 C 27.136719 -55.6875 31.027344 -57.574219 36.339844 -57.574219 C 40.820312 -57.574219 44.125 -56.394531 46.367188 -53.917969 C 48.960938 -50.96875 50.140625 -46.25 50.140625 -39.289062 L 50.140625 0 L 60.171875 0 L 60.171875 -39.289062 C 60.171875 -43.417969 60.171875 -50.261719 57.101562 -56.160156 C 53.917969 -62.175781 48.136719 -66.421875 37.871094 -66.421875 C 30.792969 -66.421875 25.128906 -63.59375 18.523438 -55.097656 L 18.523438 -90.019531 L 8.496094 -90.019531 L 8.496094 0 Z M 18.523438 0 "/></g></g></g><g fill="#000000" fill-opacity="1"><g transform="translate(327.545923, 141.956718)"><g><path d="M 20.175781 0 L 20.175781 -40.46875 L 65.242188 -40.46875 L 65.242188 0 L 76.097656 0 L 76.097656 -90.019531 L 65.242188 -90.019531 L 65.242188 -50.140625 L 20.175781 -50.140625 L 20.175781 -90.019531 L 9.320312 -90.019531 L 9.320312 0 Z M 20.175781 0 "/></g></g></g><g fill="#000000" fill-opacity="1"><g transform="translate(407.183047, 141.956718)"><g><path d="M 37.398438 1.179688 C 53.5625 1.179688 63.472656 -8.730469 67.484375 -21 L 56.75 -21 C 53.917969 -13.804688 47.191406 -7.667969 37.28125 -7.667969 C 27.84375 -7.667969 20.175781 -14.15625 16.871094 -24.1875 C 16.164062 -26.191406 15.691406 -28.667969 15.574219 -30.675781 L 68.664062 -30.675781 L 68.664062 -34.214844 C 68.664062 -55.214844 53.5625 -66.421875 37.164062 -66.421875 C 16.988281 -66.421875 5.664062 -50.140625 5.664062 -32.445312 C 5.664062 -13.214844 18.640625 1.179688 37.398438 1.179688 Z M 16.515625 -39.523438 C 16.871094 -41.53125 17.460938 -43.890625 18.40625 -45.894531 C 21.945312 -53.328125 28.667969 -57.574219 37.398438 -57.574219 C 45.777344 -57.574219 53.09375 -53.445312 56.511719 -45.894531 C 57.339844 -44.007812 57.8125 -41.648438 57.929688 -39.523438 Z M 16.515625 -39.523438 "/></g></g></g><g fill="#000000" fill-opacity="1"><g transform="translate(475.493999, 141.956718)"><g><path d="M 18.40625 0 L 18.40625 -34.332031 C 18.40625 -42.472656 20.410156 -48.019531 24.1875 -51.675781 C 27.253906 -54.742188 31.5 -56.394531 36.808594 -56.394531 L 40.230469 -56.394531 L 40.230469 -66.421875 L 39.761719 -66.421875 C 30.910156 -66.421875 24.421875 -63.59375 18.40625 -56.277344 L 18.40625 -65.242188 L 8.375 -65.242188 L 8.375 0 Z M 18.40625 0 "/></g></g></g><g fill="#000000" fill-opacity="1"><g transform="translate(512.421846, 141.956718)"><g><path d="M 37.519531 1.179688 C 56.394531 1.179688 69.609375 -13.214844 69.609375 -32.917969 C 69.609375 -52.265625 56.160156 -66.421875 37.519531 -66.421875 C 18.878906 -66.421875 5.664062 -52.265625 5.664062 -32.917969 C 5.664062 -12.976562 18.878906 1.179688 37.519531 1.179688 Z M 37.519531 -7.667969 C 25.128906 -7.667969 15.691406 -18.167969 15.691406 -32.917969 C 15.691406 -47.074219 25.011719 -57.574219 37.519531 -57.574219 C 50.140625 -57.574219 59.460938 -46.839844 59.460938 -32.917969 C 59.460938 -18.40625 50.023438 -7.667969 37.519531 -7.667969 Z M 37.519531 -7.667969 "/></g></g></g></svg>