<svg xmlns="http://www.w3.org/2000/svg" xmlns:xlink="http://www.w3.org/1999/xlink" width="800" zoomAndPan="magnify" viewBox="0 0 600 187.499995" height="250" preserveAspectRatio="xMidYMid meet" version="1.0"><defs><g/></defs><g fill="#000000" fill-opacity="1"><g transform="translate(19.498012, 132.432959)"><g><path d="M 11.484375 0 L 11.484375 -84.53125 L 22.140625 -84.53125 L 22.140625 -9.46875 L 59.078125 -9.46875 L 59.078125 0 Z M 11.484375 0 "/></g></g></g><g fill="#000000" fill-opacity="1"><g transform="translate(75.611625, 132.432959)"><g><path d="M 63.109375 -63.453125 L 63.109375 0 L 54.578125 0 L 53.03125 -8.40625 L 52.5625 -8.40625 C 50.507812 -5.09375 47.664062 -2.664062 44.03125 -1.125 C 40.40625 0.414062 36.539062 1.1875 32.4375 1.1875 C 24.78125 1.1875 19.019531 -0.644531 15.15625 -4.3125 C 11.289062 -7.988281 9.359375 -13.851562 9.359375 -21.90625 L 9.359375 -63.453125 L 19.890625 -63.453125 L 19.890625 -22.609375 C 19.890625 -12.503906 24.585938 -7.453125 33.984375 -7.453125 C 41.003906 -7.453125 45.875 -9.425781 48.59375 -13.375 C 51.320312 -17.320312 52.6875 -23.003906 52.6875 -30.421875 L 52.6875 -63.453125 Z M 63.109375 -63.453125 "/></g></g></g><g fill="#000000" fill-opacity="1"><g transform="translate(142.853287, 132.432959)"><g><path d="M 40.609375 -64.640625 C 48.179688 -64.640625 53.898438 -62.785156 57.765625 -59.078125 C 61.640625 -55.367188 63.578125 -49.445312 63.578125 -41.3125 L 63.578125 0 L 53.28125 0 L 53.28125 -40.609375 C 53.28125 -50.785156 48.539062 -55.875 39.0625 -55.875 C 32.039062 -55.875 27.1875 -53.898438 24.5 -49.953125 C 21.820312 -46.015625 20.484375 -40.332031 20.484375 -32.90625 L 20.484375 0 L 10.0625 0 L 10.0625 -63.453125 L 18.46875 -63.453125 L 20.015625 -54.8125 L 20.59375 -54.8125 C 22.644531 -58.125 25.484375 -60.585938 29.109375 -62.203125 C 32.742188 -63.828125 36.578125 -64.640625 40.609375 -64.640625 Z M 40.609375 -64.640625 "/></g></g></g><g fill="#000000" fill-opacity="1"><g transform="translate(210.09495, 132.432959)"><g><path d="M 35.515625 1.1875 C 29.835938 1.1875 24.828125 0.0390625 20.484375 -2.25 C 16.140625 -4.539062 12.722656 -8.09375 10.234375 -12.90625 C 7.753906 -17.71875 6.515625 -23.875 6.515625 -31.375 C 6.515625 -39.1875 7.796875 -45.539062 10.359375 -50.4375 C 12.921875 -55.332031 16.453125 -58.921875 20.953125 -61.203125 C 25.453125 -63.492188 30.546875 -64.640625 36.234375 -64.640625 C 39.390625 -64.640625 42.484375 -64.300781 45.515625 -63.625 C 48.554688 -62.957031 51.023438 -62.148438 52.921875 -61.203125 L 49.71875 -52.5625 C 47.820312 -53.269531 45.613281 -53.941406 43.09375 -54.578125 C 40.570312 -55.210938 38.203125 -55.53125 35.984375 -55.53125 C 23.515625 -55.53125 17.28125 -47.515625 17.28125 -31.484375 C 17.28125 -23.835938 18.800781 -17.976562 21.84375 -13.90625 C 24.882812 -9.84375 29.40625 -7.8125 35.40625 -7.8125 C 38.789062 -7.8125 41.828125 -8.164062 44.515625 -8.875 C 47.203125 -9.582031 49.648438 -10.453125 51.859375 -11.484375 L 51.859375 -2.25 C 49.722656 -1.144531 47.375 -0.296875 44.8125 0.296875 C 42.25 0.890625 39.148438 1.1875 35.515625 1.1875 Z M 35.515625 1.1875 "/></g></g></g><g fill="#000000" fill-opacity="1"><g transform="translate(260.99969, 132.432959)"><g><path d="M 20.484375 -89.984375 L 20.484375 -63.578125 C 20.484375 -60.421875 20.285156 -57.460938 19.890625 -54.703125 L 20.59375 -54.703125 C 22.644531 -57.929688 25.425781 -60.375 28.9375 -62.03125 C 32.457031 -63.6875 36.269531 -64.515625 40.375 -64.515625 C 48.03125 -64.515625 53.8125 -62.679688 57.71875 -59.015625 C 61.625 -55.347656 63.578125 -49.445312 63.578125 -41.3125 L 63.578125 0 L 53.28125 0 L 53.28125 -40.609375 C 53.28125 -50.785156 48.539062 -55.875 39.0625 -55.875 C 31.957031 -55.875 27.082031 -53.878906 24.4375 -49.890625 C 21.800781 -45.910156 20.484375 -40.210938 20.484375 -32.796875 L 20.484375 0 L 10.0625 0 L 10.0625 -89.984375 Z M 20.484375 -89.984375 "/></g></g></g><g fill="#000000" fill-opacity="1"><g transform="translate(328.241342, 132.432959)"><g><path d="M 76.125 0 L 65.46875 0 L 65.46875 -39.421875 L 22.140625 -39.421875 L 22.140625 0 L 11.484375 0 L 11.484375 -84.53125 L 22.140625 -84.53125 L 22.140625 -48.78125 L 65.46875 -48.78125 L 65.46875 -84.53125 L 76.125 -84.53125 Z M 76.125 0 "/></g></g></g><g fill="#000000" fill-opacity="1"><g transform="translate(410.044145, 132.432959)"><g><path d="M 34.5625 -64.640625 C 39.9375 -64.640625 44.59375 -63.453125 48.53125 -61.078125 C 52.476562 -58.710938 55.5 -55.378906 57.59375 -51.078125 C 59.6875 -46.785156 60.734375 -41.753906 60.734375 -35.984375 L 60.734375 -29.71875 L 17.28125 -29.71875 C 17.4375 -22.53125 19.269531 -17.0625 22.78125 -13.3125 C 26.300781 -9.570312 31.21875 -7.703125 37.53125 -7.703125 C 41.550781 -7.703125 45.117188 -8.070312 48.234375 -8.8125 C 51.359375 -9.5625 54.578125 -10.648438 57.890625 -12.078125 L 57.890625 -2.953125 C 54.648438 -1.535156 51.453125 -0.492188 48.296875 0.171875 C 45.140625 0.847656 41.394531 1.1875 37.0625 1.1875 C 30.976562 1.1875 25.644531 -0.0351562 21.0625 -2.484375 C 16.488281 -4.929688 12.921875 -8.5625 10.359375 -13.375 C 7.796875 -18.1875 6.515625 -24.144531 6.515625 -31.25 C 6.515625 -38.195312 7.675781 -44.15625 10 -49.125 C 12.332031 -54.101562 15.609375 -57.929688 19.828125 -60.609375 C 24.054688 -63.296875 28.96875 -64.640625 34.5625 -64.640625 Z M 34.453125 -56.109375 C 29.484375 -56.109375 25.554688 -54.507812 22.671875 -51.3125 C 19.785156 -48.125 18.066406 -43.6875 17.515625 -38 L 49.84375 -38 C 49.757812 -43.363281 48.492188 -47.722656 46.046875 -51.078125 C 43.609375 -54.429688 39.742188 -56.109375 34.453125 -56.109375 Z M 34.453125 -56.109375 "/></g></g></g><g fill="#000000" fill-opacity="1"><g transform="translate(470.893077, 132.432959)"><g><path d="M 39.65625 -64.640625 C 40.84375 -64.640625 42.109375 -64.578125 43.453125 -64.453125 C 44.796875 -64.335938 46.019531 -64.164062 47.125 -63.9375 L 45.8125 -54.34375 C 44.789062 -54.582031 43.644531 -54.78125 42.375 -54.9375 C 41.113281 -55.09375 39.972656 -55.171875 38.953125 -55.171875 C 35.710938 -55.171875 32.671875 -54.28125 29.828125 -52.5 C 26.992188 -50.726562 24.726562 -48.242188 23.03125 -45.046875 C 21.332031 -41.847656 20.484375 -38.117188 20.484375 -33.859375 L 20.484375 0 L 10.0625 0 L 10.0625 -63.453125 L 18.59375 -63.453125 L 19.765625 -51.859375 L 20.25 -51.859375 C 22.21875 -55.328125 24.835938 -58.320312 28.109375 -60.84375 C 31.390625 -63.375 35.238281 -64.640625 39.65625 -64.640625 Z M 39.65625 -64.640625 "/></g></g></g><g fill="#000000" fill-opacity="1"><g transform="translate(513.866126, 132.432959)"><g><path d="M 65.234375 -31.84375 C 65.234375 -21.34375 62.566406 -13.210938 57.234375 -7.453125 C 51.910156 -1.691406 44.710938 1.1875 35.640625 1.1875 C 30.035156 1.1875 25.039062 -0.09375 20.65625 -2.65625 C 16.28125 -5.226562 12.828125 -8.976562 10.296875 -13.90625 C 7.773438 -18.84375 6.515625 -24.820312 6.515625 -31.84375 C 6.515625 -42.34375 9.132812 -50.429688 14.375 -56.109375 C 19.625 -61.796875 26.828125 -64.640625 35.984375 -64.640625 C 41.671875 -64.640625 46.722656 -63.359375 51.140625 -60.796875 C 55.566406 -58.234375 59.019531 -54.523438 61.5 -49.671875 C 63.988281 -44.816406 65.234375 -38.875 65.234375 -31.84375 Z M 17.28125 -31.84375 C 17.28125 -24.34375 18.757812 -18.398438 21.71875 -14.015625 C 24.6875 -9.640625 29.40625 -7.453125 35.875 -7.453125 C 42.269531 -7.453125 46.960938 -9.640625 49.953125 -14.015625 C 52.953125 -18.398438 54.453125 -24.34375 54.453125 -31.84375 C 54.453125 -39.34375 52.953125 -45.222656 49.953125 -49.484375 C 46.960938 -53.742188 42.226562 -55.875 35.75 -55.875 C 29.28125 -55.875 24.582031 -53.742188 21.65625 -49.484375 C 18.738281 -45.222656 17.28125 -39.34375 17.28125 -31.84375 Z M 17.28125 -31.84375 "/></g></g></g></svg>