<svg xmlns="http://www.w3.org/2000/svg" xmlns:xlink="http://www.w3.org/1999/xlink" width="800" zoomAndPan="magnify" viewBox="0 0 600 187.499995" height="250" preserveAspectRatio="xMidYMid meet" version="1.0"><defs><g/></defs><g fill="#000000" fill-opacity="1"><g transform="translate(19.498012, 133.448389)"><g><path d="M 26.59375 -88.46875 L 26.59375 -17.6875 L 57.046875 -17.6875 L 57.046875 0 L 6.4375 0 L 6.4375 -88.46875 Z M 26.59375 -88.46875 "/></g></g></g><g fill="#000000" fill-opacity="1"><g transform="translate(74.726321, 133.448389)"><g><path d="M 24.34375 -55.015625 L 24.34375 -28.84375 C 24.34375 -23.414062 25.164062 -19.554688 26.8125 -17.265625 C 28.457031 -14.972656 31.242188 -13.828125 35.171875 -13.828125 C 39.109375 -13.828125 41.894531 -14.972656 43.53125 -17.265625 C 45.175781 -19.554688 46 -23.414062 46 -28.84375 L 46 -55.015625 L 64.984375 -55.015625 L 64.984375 -24.234375 C 64.984375 -15.085938 62.601562 -8.492188 57.84375 -4.453125 C 53.09375 -0.410156 45.535156 1.609375 35.171875 1.609375 C 24.804688 1.609375 17.242188 -0.410156 12.484375 -4.453125 C 7.734375 -8.492188 5.359375 -15.085938 5.359375 -24.234375 L 5.359375 -55.015625 Z M 24.34375 -55.015625 "/></g></g></g><g fill="#000000" fill-opacity="1"><g transform="translate(139.713427, 133.448389)"><g><path d="M 6.4375 0 L 6.4375 -55.015625 L 25.421875 -55.015625 L 25.421875 -49.21875 L 25.625 -49.21875 C 30.5625 -54.15625 35.816406 -56.625 41.390625 -56.625 C 44.109375 -56.625 46.804688 -56.265625 49.484375 -55.546875 C 52.171875 -54.828125 54.742188 -53.71875 57.203125 -52.21875 C 59.671875 -50.71875 61.671875 -48.59375 63.203125 -45.84375 C 64.742188 -43.09375 65.515625 -39.894531 65.515625 -36.25 L 65.515625 0 L 46.546875 0 L 46.546875 -31.09375 C 46.546875 -33.957031 45.632812 -36.460938 43.8125 -38.609375 C 41.988281 -40.753906 39.609375 -41.828125 36.671875 -41.828125 C 33.816406 -41.828125 31.226562 -40.71875 28.90625 -38.5 C 26.582031 -36.28125 25.421875 -33.8125 25.421875 -31.09375 L 25.421875 0 Z M 6.4375 0 "/></g></g></g><g fill="#000000" fill-opacity="1"><g transform="translate(205.236727, 133.448389)"><g><path d="M 35.703125 -41.078125 C 32.128906 -41.078125 29.054688 -39.753906 26.484375 -37.109375 C 23.910156 -34.460938 22.625 -31.28125 22.625 -27.5625 C 22.625 -23.769531 23.910156 -20.550781 26.484375 -17.90625 C 29.054688 -15.257812 32.128906 -13.9375 35.703125 -13.9375 C 37.421875 -13.9375 39.046875 -14.148438 40.578125 -14.578125 C 42.117188 -15.015625 43.25 -15.445312 43.96875 -15.875 L 44.9375 -16.515625 L 51.359375 -3.328125 C 50.859375 -2.960938 50.160156 -2.507812 49.265625 -1.96875 C 48.378906 -1.4375 46.34375 -0.707031 43.15625 0.21875 C 39.976562 1.144531 36.566406 1.609375 32.921875 1.609375 C 24.835938 1.609375 17.738281 -1.226562 11.625 -6.90625 C 5.519531 -12.59375 2.46875 -19.40625 2.46875 -27.34375 C 2.46875 -35.351562 5.519531 -42.234375 11.625 -47.984375 C 17.738281 -53.742188 24.835938 -56.625 32.921875 -56.625 C 36.566406 -56.625 39.925781 -56.191406 43 -55.328125 C 46.070312 -54.472656 48.253906 -53.617188 49.546875 -52.765625 L 51.359375 -51.46875 L 44.9375 -38.5 C 42.570312 -40.21875 39.492188 -41.078125 35.703125 -41.078125 Z M 35.703125 -41.078125 "/></g></g></g><g fill="#000000" fill-opacity="1"><g transform="translate(252.529323, 133.448389)"><g><path d="M 6.4375 0 L 6.4375 -92.21875 L 25.421875 -92.21875 L 25.421875 -49.21875 L 25.625 -49.21875 C 30.5625 -54.15625 35.816406 -56.625 41.390625 -56.625 C 44.109375 -56.625 46.804688 -56.265625 49.484375 -55.546875 C 52.171875 -54.828125 54.742188 -53.71875 57.203125 -52.21875 C 59.671875 -50.71875 61.671875 -48.59375 63.203125 -45.84375 C 64.742188 -43.09375 65.515625 -39.894531 65.515625 -36.25 L 65.515625 0 L 46.546875 0 L 46.546875 -31.09375 C 46.546875 -33.957031 45.632812 -36.460938 43.8125 -38.609375 C 41.988281 -40.753906 39.609375 -41.828125 36.671875 -41.828125 C 33.816406 -41.828125 31.226562 -40.71875 28.90625 -38.5 C 26.582031 -36.28125 25.421875 -33.8125 25.421875 -31.09375 L 25.421875 0 Z M 6.4375 0 "/></g></g></g><g fill="#000000" fill-opacity="1"><g transform="translate(318.052623, 133.448389)"><g><path d="M 26.59375 -35.5 L 26.59375 0 L 6.4375 0 L 6.4375 -88.46875 L 26.59375 -88.46875 L 26.59375 -53.1875 L 55.125 -53.1875 L 55.125 -88.46875 L 75.28125 -88.46875 L 75.28125 0 L 55.125 0 L 55.125 -35.5 Z M 26.59375 -35.5 "/></g></g></g><g fill="#000000" fill-opacity="1"><g transform="translate(394.407109, 133.448389)"><g><path d="M 62.09375 -24.875 L 22.203125 -24.875 C 22.203125 -21.019531 23.453125 -18.160156 25.953125 -16.296875 C 28.453125 -14.441406 31.164062 -13.515625 34.09375 -13.515625 C 37.175781 -13.515625 39.609375 -13.925781 41.390625 -14.75 C 43.179688 -15.570312 45.21875 -17.195312 47.5 -19.625 L 61.234375 -12.765625 C 55.515625 -3.179688 46.003906 1.609375 32.703125 1.609375 C 24.410156 1.609375 17.296875 -1.226562 11.359375 -6.90625 C 5.429688 -12.59375 2.46875 -19.441406 2.46875 -27.453125 C 2.46875 -35.460938 5.429688 -42.328125 11.359375 -48.046875 C 17.296875 -53.765625 24.410156 -56.625 32.703125 -56.625 C 41.429688 -56.625 48.53125 -54.101562 54 -49.0625 C 59.46875 -44.019531 62.203125 -36.816406 62.203125 -27.453125 C 62.203125 -26.160156 62.164062 -25.300781 62.09375 -24.875 Z M 22.734375 -35.390625 L 43.640625 -35.390625 C 43.210938 -38.242188 42.085938 -40.4375 40.265625 -41.96875 C 38.441406 -43.507812 36.101562 -44.28125 33.25 -44.28125 C 30.101562 -44.28125 27.597656 -43.457031 25.734375 -41.8125 C 23.878906 -40.175781 22.878906 -38.035156 22.734375 -35.390625 Z M 22.734375 -35.390625 "/></g></g></g><g fill="#000000" fill-opacity="1"><g transform="translate(453.71053, 133.448389)"><g><path d="M 6.4375 0 L 6.4375 -55.015625 L 25.421875 -55.015625 L 25.421875 -47.078125 L 25.625 -47.078125 C 25.769531 -47.359375 26.003906 -47.710938 26.328125 -48.140625 C 26.648438 -48.578125 27.347656 -49.332031 28.421875 -50.40625 C 29.492188 -51.476562 30.632812 -52.441406 31.84375 -53.296875 C 33.0625 -54.148438 34.632812 -54.914062 36.5625 -55.59375 C 38.5 -56.28125 40.46875 -56.625 42.46875 -56.625 C 44.539062 -56.625 46.578125 -56.335938 48.578125 -55.765625 C 50.578125 -55.191406 52.039062 -54.617188 52.96875 -54.046875 L 54.46875 -53.1875 L 46.546875 -37.109375 C 44.179688 -39.109375 40.890625 -40.109375 36.671875 -40.109375 C 34.390625 -40.109375 32.425781 -39.609375 30.78125 -38.609375 C 29.132812 -37.609375 27.96875 -36.390625 27.28125 -34.953125 C 26.601562 -33.523438 26.125 -32.3125 25.84375 -31.3125 C 25.5625 -30.3125 25.421875 -29.523438 25.421875 -28.953125 L 25.421875 0 Z M 6.4375 0 "/></g></g></g><g fill="#000000" fill-opacity="1"><g transform="translate(501.753786, 133.448389)"><g><path d="M 11.625 -6.53125 C 5.519531 -11.96875 2.46875 -18.941406 2.46875 -27.453125 C 2.46875 -35.960938 5.644531 -42.953125 12 -48.421875 C 18.363281 -53.890625 26.234375 -56.625 35.609375 -56.625 C 44.828125 -56.625 52.597656 -53.867188 58.921875 -48.359375 C 65.253906 -42.859375 68.421875 -35.890625 68.421875 -27.453125 C 68.421875 -19.015625 65.328125 -12.0625 59.140625 -6.59375 C 52.953125 -1.125 45.109375 1.609375 35.609375 1.609375 C 25.734375 1.609375 17.738281 -1.101562 11.625 -6.53125 Z M 26.328125 -36.78125 C 23.859375 -34.351562 22.625 -31.242188 22.625 -27.453125 C 22.625 -23.660156 23.800781 -20.566406 26.15625 -18.171875 C 28.519531 -15.773438 31.632812 -14.578125 35.5 -14.578125 C 39.21875 -14.578125 42.269531 -15.789062 44.65625 -18.21875 C 47.050781 -20.65625 48.25 -23.734375 48.25 -27.453125 C 48.25 -31.242188 47.015625 -34.351562 44.546875 -36.78125 C 42.085938 -39.207031 39.070312 -40.421875 35.5 -40.421875 C 31.851562 -40.421875 28.796875 -39.207031 26.328125 -36.78125 Z M 26.328125 -36.78125 "/></g></g></g></svg>